<svg width="13" height="16" viewBox="0 0 13 16" fill="none" xmlns="http://www.w3.org/2000/svg">
<path d="M6.625 0.859375C3.1075 0.859375 0.25 3.71688 0.25 7.23438C0.25 10.7519 3.1075 13.6094 6.625 13.6094H7V15.8594C10.645 14.1044 13 10.6094 13 7.23438C13 3.71688 10.1425 0.859375 6.625 0.859375ZM7.375 11.7344H5.875V10.2344H7.375V11.7344ZM7.375 9.10938H5.875C5.875 6.67188 8.125 6.85938 8.125 5.35938C8.125 4.53437 7.45 3.85938 6.625 3.85938C5.8 3.85938 5.125 4.53437 5.125 5.35938H3.625C3.625 3.70187 4.9675 2.35938 6.625 2.35938C8.2825 2.35938 9.625 3.70187 9.625 5.35938C9.625 7.23438 7.375 7.42188 7.375 9.10938Z" fill="white"/>
</svg>
